<svg xmlns="http://www.w3.org/2000/svg" viewBox="33 11 318 225" role="img" aria-labelledby="plt"><title id="plt">Protect Construction Consultants</title><defs><linearGradient id="al" x1="0" y1="74" x2="0" y2="142" gradientUnits="userSpaceOnUse"><stop offset="0" stop-color="#F2BC3B"/><stop offset="1" stop-color="#B58117"/></linearGradient><linearGradient id="ad" x1="0" y1="78" x2="0" y2="142" gradientUnits="userSpaceOnUse"><stop offset="0" stop-color="#CC941F"/><stop offset="1" stop-color="#94660F"/></linearGradient></defs><path fill="url(#al)" d="M207.5 69.2L209.0 70.0L212.2 73.2L213.2 73.8L213.2 137.0L210.8 139.2L208.0 141.8L207.5 141.8Z"/><path fill="url(#ad)" d="M213.2 74.0L230.8 89.0L230.8 118.0L228.0 121.0L227.2 122.5L225.8 123.8L225.8 124.2L222.0 128.0L221.5 129.0L214.5 136.0L213.2 136.8Z"/><path fill="#D19B23" d="M191.8 22.0L203.5 27.8L204.2 27.8L205.8 28.8L206.5 28.8L207.5 29.5L208.2 29.5L209.2 30.2L212.5 31.2L218.5 34.0L238.8 41.0L239.8 41.0L242.8 42.2L251.8 44.8L251.5 62.5L250.5 71.0L248.8 80.2L246.8 88.0L244.8 94.0L243.0 97.5L242.8 99.0L238.0 108.5L235.5 112.0L237.8 107.5L237.8 106.8L240.5 100.8L241.0 98.5L241.5 98.0L245.5 84.0L246.8 77.8L248.2 66.2L248.8 58.8L248.5 47.2L238.0 44.2L220.8 38.5L220.2 38.0L212.8 35.5L205.2 32.0L204.5 32.0L194.2 27.0L192.8 26.5L192.5 26.0L191.8 26.0L182.5 30.8L180.0 31.5L173.2 34.8L168.5 36.2L167.5 37.0L151.0 42.8L150.0 42.8L147.0 44.0L135.5 47.2L135.5 62.0L137.0 76.2L139.0 86.2L141.5 95.2L142.0 95.8L143.5 101.0L144.0 101.5L145.5 106.0L147.5 109.8L147.5 110.5L147.0 110.2L145.2 106.5L144.8 106.2L139.0 93.2L136.5 85.2L134.2 75.0L132.5 58.5L132.5 44.8L148.2 40.2L163.2 35.0L163.8 34.5L173.2 31.0L174.2 30.2L175.0 30.2L176.0 29.5L176.8 29.5L181.0 27.2L181.8 27.2Z"/><path fill="#02224F" fill-rule="evenodd" d="M191.8 11.2L209.0 19.8L211.0 20.2L213.0 21.5L213.8 21.5L214.8 22.2L215.5 22.2L223.5 25.8L225.0 26.0L226.8 27.0L244.8 33.0L261.5 37.5L260.8 58.8L258.8 74.8L255.5 88.8L253.0 96.2L250.5 101.5L250.0 103.5L246.2 111.0L245.8 111.2L245.0 113.2L242.0 117.5L241.8 118.5L238.8 122.2L238.8 122.8L238.0 123.2L236.8 125.5L232.2 130.5L232.2 131.0L230.0 133.0L230.0 133.5L219.2 144.0L213.0 142.5L211.5 142.5L211.2 142.0L216.0 137.5L216.5 137.5L223.8 130.2L223.8 129.8L225.8 128.0L225.8 127.5L230.5 122.2L230.5 121.8L234.0 117.5L236.2 113.5L238.2 111.0L244.5 98.8L248.8 87.0L251.8 74.5L253.5 61.2L254.0 43.0L240.0 39.0L218.5 31.5L210.8 28.0L208.8 27.5L207.2 26.5L206.5 26.5L204.5 25.2L203.8 25.2L194.0 20.5L193.2 19.8L192.0 19.2L188.0 21.2L187.8 21.8L187.0 21.8L175.5 27.5L174.8 27.5L170.2 29.8L160.5 33.2L160.0 33.8L158.5 34.0L158.0 34.5L141.5 40.0L130.5 43.0L130.5 56.0L132.0 72.0L134.5 84.2L138.2 95.8L144.5 109.0L145.0 109.2L145.5 110.8L146.5 111.8L148.8 116.0L149.5 116.5L152.2 121.0L156.2 125.5L157.0 127.0L164.2 134.2L164.2 134.8L165.2 135.8L165.8 135.8L169.0 139.2L171.0 140.5L172.5 142.2L164.5 144.0L152.8 132.5L152.8 132.0L150.0 129.2L150.0 128.8L148.8 127.8L147.2 125.2L144.8 122.5L144.8 122.0L141.8 118.0L141.5 117.0L140.5 116.0L140.2 115.0L139.8 114.8L133.5 102.5L129.5 91.8L126.0 78.0L124.2 66.0L123.8 59.2L123.2 50.5L123.2 37.8L137.5 34.0L158.2 27.0L161.2 25.5L162.8 25.2L164.2 24.2L167.0 23.5L174.0 20.0L174.8 20.0L189.5 12.8L190.2 12.0L191.5 11.8ZM191.2 34.5L192.5 35.0L197.8 39.2L199.8 40.2L205.0 44.5L207.0 45.5L207.8 46.5L212.5 49.5L212.5 68.0L201.0 59.0L201.0 121.0L201.0 141.5L191.2 141.0ZM187.8 46.5L188.0 141.0L178.0 141.8L178.0 129.0L178.0 76.2L176.2 77.2L174.5 79.0L174.0 79.0L171.0 81.8L170.5 81.8L170.5 62.0L173.2 59.5L173.8 59.5L176.8 56.2L177.2 56.2L178.8 54.5L179.2 54.5L181.5 52.0L182.0 52.0L183.2 50.5L183.8 50.5ZM171.8 83.2L172.2 83.2L172.2 138.2L169.5 135.8L169.0 135.8L167.0 133.8L167.0 133.2L166.2 133.0L162.5 129.0L157.2 123.2L157.2 122.8L152.8 117.5L152.8 97.5L155.5 95.8L156.0 95.0L156.5 95.0L157.0 94.2L157.5 94.2L159.2 92.5L161.5 91.2L162.0 90.5L162.5 90.5L163.0 89.8L163.5 89.8L164.0 89.0L164.5 89.0L165.0 88.2L165.5 88.2L166.0 87.5L166.5 87.5L167.0 86.8L167.5 86.8L168.0 86.0L168.5 86.0L169.0 85.2L169.5 85.2L170.0 84.5L171.2 84.0ZM185.2 143.2L203.0 143.5L211.2 144.2L217.0 145.2L217.0 145.8L216.5 145.8L215.0 147.5L212.5 149.0L210.8 150.8L210.2 150.8L205.5 154.2L204.5 154.5L203.5 155.5L196.2 159.5L192.5 161.5L191.5 161.5L189.5 160.2L188.8 160.2L178.5 154.5L178.2 154.0L174.0 151.5L166.5 145.5L172.5 144.2Z"/><g fill="#02224F" fill-rule="evenodd"><path d="M104.0 169.8L114.0 170.2L117.2 171.8L119.5 174.8L120.0 177.0L120.0 186.2L119.5 188.2L118.8 189.8L116.2 192.0L111.5 193.5L118.8 201.0L120.5 203.0L120.5 203.8L108.5 204.0L101.5 196.5L98.5 193.2L90.2 193.2L90.0 203.8L80.2 203.8L80.2 170.2ZM141.0 169.8L162.5 170.0L167.0 171.8L169.0 174.8L169.5 176.5L169.5 197.0L169.0 199.0L166.8 202.0L164.2 203.2L155.2 203.8L133.2 203.8L130.0 202.8L127.2 199.8L126.8 198.0L126.8 176.8L127.2 174.8L128.0 173.2L131.0 170.8L133.5 170.0ZM175.8 169.8L215.2 169.8L215.5 177.5L200.0 177.8L200.0 189.5L200.0 203.5L190.2 204.0L189.8 203.5L189.8 178.2L189.2 178.2L189.8 177.8L175.5 177.8L175.2 170.2ZM222.5 169.8L260.2 170.0L260.0 177.5L230.5 177.8L230.5 184.0L255.8 184.0L255.5 190.5L241.0 190.5L230.5 190.5L230.5 196.5L259.8 196.5L259.8 203.8L220.5 203.5L220.5 171.8L220.8 170.8ZM282.0 169.8L297.5 169.8L303.0 171.2L305.0 173.0L306.2 175.2L306.8 182.2L297.2 182.5L297.2 179.2L295.8 177.8L275.2 178.0L274.5 179.2L274.8 196.0L277.0 196.8L296.2 196.5L297.2 194.5L297.2 191.8L306.8 191.5L307.0 195.0L306.0 199.5L304.0 201.8L300.0 203.5L272.2 203.8L268.2 202.5L266.0 200.2L265.0 196.0L265.0 184.2L265.2 176.5L266.2 174.0L268.0 172.0L271.0 170.5ZM312.0 169.8L350.8 169.8L351.0 177.2L335.5 177.5L335.5 189.8L335.5 203.8L325.2 203.8L324.8 201.8L325.0 177.5L311.5 177.5L311.2 170.2ZM34.2 170.0L64.5 170.0L67.5 170.5L70.2 171.8L71.8 173.2L73.0 176.5L73.0 188.0L72.5 189.8L71.8 191.2L69.2 193.2L67.0 194.0L61.8 194.2L43.0 194.2L43.0 203.8L33.5 204.0L33.2 170.5ZM90.2 177.5L90.0 186.2L90.5 186.5L109.0 186.5L109.8 186.0L110.5 184.8L110.5 179.2L109.2 177.5ZM43.0 177.8L43.0 187.2L62.2 187.2L63.5 186.0L63.5 179.0L62.2 177.8ZM137.5 177.8L136.5 178.8L136.2 191.8L136.5 196.0L137.0 196.5L158.0 196.5L159.5 195.8L159.8 181.0L159.0 178.0Z"/><path d="M36.2 226.8L38.8 226.8L38.8 227.0L39.5 227.0L39.5 227.2L40.0 227.2L40.0 227.5L40.5 227.5L41.0 228.0L41.0 228.8L40.2 229.5L39.8 229.5L38.8 228.5L36.5 228.5L36.5 228.8L36.0 228.8L35.2 229.5L35.0 230.8L34.8 230.8L35.0 233.0L35.2 233.0L35.2 233.5L36.0 234.2L38.8 234.5L38.8 234.2L39.5 234.0L39.8 233.5L40.5 233.5L40.8 234.0L41.2 234.0L41.2 234.5L40.8 234.8L40.5 235.5L40.0 235.5L39.5 236.0L38.5 236.0L38.5 236.2L36.5 236.2L36.5 236.0L35.8 236.0L35.8 235.8L34.8 235.5L33.8 234.5L33.8 234.0L33.2 233.8L33.2 233.0L33.0 233.0L33.0 230.0L33.2 230.0L33.2 229.2L33.5 229.2L33.5 228.8L34.8 227.5L35.2 227.5L35.2 227.2L35.8 227.2ZM51.2 226.8L53.2 226.8L53.2 227.0L54.0 227.0L54.0 227.2L54.8 227.2L55.0 227.8L55.5 227.8L55.8 228.5L56.2 228.8L56.2 229.2L56.8 229.8L56.8 230.8L57.0 230.8L57.0 232.2L56.8 232.2L56.8 233.2L56.5 233.2L56.2 234.2L55.0 235.5L54.5 235.5L54.0 236.0L53.0 236.0L53.0 236.2L51.0 236.2L51.0 236.0L50.2 236.0L50.2 235.8L49.2 235.5L48.2 234.5L48.2 234.0L47.8 233.5L47.8 232.8L47.5 232.8L47.5 230.5L47.8 230.5L47.8 229.5L48.0 229.5L48.2 228.5L49.0 227.8L49.5 227.8L49.8 227.2L51.2 227.0ZM64.5 226.8L64.8 227.0L66.2 227.0L66.8 227.5L66.8 228.0L67.5 228.5L67.5 229.0L68.0 229.2L68.0 229.8L68.5 230.0L69.0 231.2L69.8 232.0L70.2 232.0L70.0 232.2L70.2 232.8L70.5 232.8L70.5 227.0L72.2 227.0L72.2 236.0L70.2 236.0L70.0 235.2L69.5 235.0L69.5 234.5L69.0 234.2L69.0 233.8L68.5 233.5L68.5 233.0L67.2 231.8L67.2 231.2L66.8 231.0L66.5 230.2L66.2 230.2L66.2 231.8L66.0 231.8L66.0 236.0L64.2 236.0L64.2 227.0ZM81.2 226.8L83.2 226.8L83.2 227.0L84.2 227.0L84.2 227.2L85.5 227.8L85.0 229.2L84.2 229.2L84.0 228.8L83.2 228.8L83.2 228.5L81.5 228.5L81.5 228.8L81.0 228.8L81.0 230.0L84.8 231.2L85.5 232.0L85.5 232.5L85.8 232.5L85.8 234.5L85.5 234.5L85.5 235.0L84.8 235.8L84.2 235.8L84.2 236.0L82.8 236.2L81.2 236.2L81.2 236.0L79.8 235.8L79.2 235.0L78.8 235.0L78.8 234.5L79.5 234.0L79.5 233.5L80.0 233.5L80.2 234.0L80.8 234.0L81.2 234.5L83.5 234.5L84.0 234.0L84.0 233.0L83.8 232.8L80.8 232.0L79.2 230.5L79.2 228.2L80.5 227.0L81.2 227.0ZM137.2 226.8L139.8 227.0L139.8 227.2L140.8 227.5L141.5 228.2L141.5 228.8L140.8 229.5L140.0 229.5L139.0 228.5L137.0 228.5L137.0 228.8L136.5 228.8L135.5 229.8L135.5 230.2L135.2 230.2L135.2 231.2L135.0 231.2L135.2 232.8L135.5 232.8L135.8 233.8L136.5 234.0L136.8 234.5L138.0 234.5L138.2 234.8L138.2 234.5L139.8 234.2L140.0 233.8L140.8 233.5L141.8 234.5L140.5 235.8L139.2 236.0L139.2 236.2L136.5 236.2L136.5 236.0L135.0 235.5L134.2 234.8L134.2 234.2L133.8 234.0L133.5 232.0L133.2 232.0L133.5 229.8L133.8 229.8L134.0 228.8L135.2 227.5L135.8 227.5L136.2 227.0L137.2 227.0ZM173.0 226.8L175.0 226.8L175.0 227.0L175.8 227.0L175.8 227.2L176.8 227.5L178.0 228.8L178.0 229.2L178.5 229.8L178.8 232.0L178.5 232.0L178.5 233.2L178.2 233.2L178.0 234.2L176.5 235.8L175.0 236.2L172.8 236.2L172.8 236.0L172.0 236.0L172.0 235.8L171.0 235.5L170.0 234.5L170.0 234.0L169.5 233.8L169.5 233.0L169.2 233.0L169.2 230.2L169.5 230.2L169.8 229.0L170.2 228.8L170.2 228.2L170.8 227.8L171.2 227.8L172.0 227.0L173.0 227.0ZM210.2 226.8L212.8 227.0L212.8 227.2L213.8 227.5L214.8 228.8L214.0 229.0L213.8 229.5L213.0 229.5L213.0 229.0L212.5 229.0L212.0 228.5L210.0 228.5L210.0 228.8L209.5 228.8L208.5 229.8L208.2 231.0L208.0 231.0L208.2 233.0L208.5 233.0L208.5 233.5L209.2 234.2L210.8 234.5L210.8 234.8L211.5 234.8L211.5 234.5L212.2 234.5L212.2 234.2L213.0 234.0L213.2 233.5L213.8 233.5L214.0 234.0L214.8 234.2L214.8 234.8L214.2 234.8L213.8 235.5L213.2 235.5L213.0 236.0L212.2 236.0L212.2 236.2L209.5 236.2L209.5 236.0L208.8 236.0L206.8 234.0L206.8 233.2L206.5 233.2L206.5 232.5L206.2 232.5L206.5 229.8L206.8 229.8L207.0 228.8L208.2 227.5L208.8 227.5L209.2 227.0L210.2 227.0ZM224.2 226.8L226.0 226.8L226.0 227.0L227.5 227.2L227.8 227.8L228.2 227.8L228.8 228.2L228.8 228.8L229.2 229.0L229.5 230.2L229.8 230.2L229.8 233.0L229.5 233.0L229.2 234.2L228.0 235.5L225.8 236.2L223.5 236.2L223.5 236.0L222.8 236.0L222.5 235.5L222.0 235.5L221.2 234.8L221.2 234.2L220.8 234.0L220.5 232.5L220.2 232.5L220.2 230.8L220.5 230.8L220.5 229.8L220.8 229.8L221.0 228.8L222.2 227.5L222.8 227.5L223.2 227.0L224.2 227.0ZM254.0 226.8L256.2 227.0L256.2 227.2L257.8 227.8L257.8 228.2L257.2 228.5L257.0 229.2L256.5 229.2L256.2 228.8L255.5 228.8L255.5 228.5L253.8 228.5L253.8 228.8L253.2 228.8L253.2 230.0L253.5 230.2L256.8 231.2L257.8 232.2L257.8 232.8L258.0 232.8L258.0 234.0L257.8 234.0L257.8 234.8L257.2 235.0L257.2 235.5L256.8 235.5L256.5 236.0L255.8 236.0L255.8 236.2L254.8 236.2L253.2 236.2L253.2 236.0L252.5 236.0L252.5 235.8L252.0 235.8L251.8 235.2L251.0 235.0L251.5 233.8L252.2 233.8L252.2 234.0L252.8 234.0L253.2 234.5L255.8 234.5L256.0 234.2L256.0 233.0L255.5 232.5L253.0 232.0L253.0 231.8L252.0 231.5L251.5 231.0L251.5 230.5L251.2 230.5L251.2 228.8L251.5 228.8L251.8 227.8L253.0 227.2L253.0 227.0L254.0 227.0ZM347.2 226.8L349.8 227.0L349.8 227.2L351.0 227.8L351.0 228.5L350.8 228.5L350.5 229.2L350.0 229.2L349.8 228.8L349.0 228.8L349.0 228.5L347.0 228.5L347.0 228.8L346.5 228.8L346.5 229.8L347.0 230.2L347.5 230.2L347.5 230.5L348.2 230.5L348.2 230.8L350.2 231.2L351.2 232.2L351.2 234.5L351.0 234.5L351.0 235.0L350.2 235.8L349.0 236.0L349.0 236.2L346.8 236.2L346.5 236.0L345.0 235.5L344.2 234.8L345.0 233.5L345.5 233.5L345.8 234.0L346.2 234.0L346.8 234.5L349.0 234.5L349.5 234.0L349.5 233.2L348.8 234.0L349.0 233.2L349.2 233.2L348.8 232.5L345.8 231.8L345.5 231.2L345.0 231.2L345.0 230.8L344.5 230.2L344.8 228.2L345.8 227.2L347.2 227.0ZM91.0 227.0L98.8 227.0L98.8 228.5L95.8 228.5L95.8 233.2L95.8 236.0L94.0 236.0L94.0 230.0L93.8 230.0L94.0 228.8L91.2 228.5L91.0 228.2ZM105.0 227.0L110.0 227.0L110.0 227.2L110.8 227.2L111.8 228.2L111.8 228.8L112.0 228.8L112.0 231.2L110.2 233.0L110.5 233.0L110.8 234.0L111.2 234.2L111.5 235.2L112.0 235.5L112.0 236.0L110.8 236.0L110.0 236.0L110.0 235.5L109.5 235.2L109.5 234.8L108.8 234.0L108.5 233.0L106.8 233.0L106.8 236.0L105.0 236.0ZM119.0 227.0L120.8 227.0L120.8 233.5L121.8 234.5L124.0 234.5L124.8 233.8L124.8 233.0L125.0 233.0L125.0 227.0L126.8 227.0L126.8 228.8L126.8 233.8L126.5 233.8L126.2 234.8L125.2 235.8L124.0 236.0L124.0 236.2L121.5 236.2L121.5 236.0L120.2 235.8L119.5 235.0L119.2 233.8L119.0 233.8ZM147.2 227.0L154.8 227.0L154.8 228.5L152.0 228.5L151.8 228.8L151.8 233.2L151.8 236.0L150.8 236.0L150.8 236.2L150.0 236.0L150.0 228.5L147.2 228.5ZM161.0 227.0L162.8 227.0L162.8 235.8L163.0 235.8L162.8 236.0L162.8 236.2L161.0 236.0ZM185.0 227.0L187.0 227.0L190.8 232.5L191.2 232.2L191.2 227.0L193.0 227.0L193.0 236.0L192.5 236.2L192.5 236.0L192.2 236.2L191.2 236.2L190.5 235.5L190.5 235.0L190.0 234.8L190.0 234.2L189.5 234.0L189.5 233.5L189.0 233.2L188.5 232.0L187.8 231.5L187.2 230.2L187.0 230.2L187.0 231.8L186.8 231.8L186.8 236.0L185.0 236.0ZM236.5 227.0L238.5 227.0L239.0 227.5L239.2 228.5L239.8 228.8L239.8 229.2L240.5 229.8L240.5 230.2L241.0 230.5L241.0 231.0L241.8 231.5L241.8 232.0L242.2 232.5L242.8 232.0L242.8 227.0L244.5 227.0L244.5 236.0L244.0 236.2L243.0 236.2L243.0 236.0L242.5 236.0L242.0 235.5L242.0 235.0L240.8 233.8L240.8 233.2L240.2 233.0L240.2 232.5L239.8 232.2L239.8 231.8L239.2 231.5L238.8 230.2L238.5 230.2L238.5 231.0L238.2 231.0L238.2 236.2L236.8 236.2L236.5 236.0ZM264.0 227.0L265.8 227.0L265.8 233.2L266.0 233.2L266.0 233.8L266.8 234.5L269.0 234.5L269.8 233.8L269.8 233.0L270.0 233.0L270.0 227.0L271.8 227.0L271.8 228.8L271.8 233.8L271.5 233.8L271.5 234.5L271.0 234.8L271.0 235.2L270.5 235.2L270.2 235.8L269.0 236.0L269.0 236.2L266.5 236.2L266.5 236.0L265.2 235.8L264.5 235.0L264.2 234.0L264.0 234.0ZM278.8 227.0L280.5 227.0L280.5 234.5L284.8 234.5L284.8 236.2L279.0 236.2L278.8 236.0ZM289.8 227.0L297.2 227.0L297.2 228.5L294.2 228.5L294.2 230.0L294.5 230.0L294.5 232.5L294.2 232.8L294.2 236.0L292.5 236.0L292.5 228.5L289.8 228.5ZM305.2 227.0L307.5 227.0L308.0 229.0L308.5 229.5L308.5 230.2L309.0 230.8L309.0 231.5L309.5 232.0L309.5 232.8L309.8 232.8L310.0 234.0L310.5 234.5L310.5 235.2L311.0 235.8L310.8 236.2L309.0 236.0L308.2 234.0L307.8 234.0L304.5 234.0L304.2 235.2L304.0 235.2L304.0 235.8L303.5 236.2L302.0 236.0L302.2 234.8L302.5 234.8L302.8 233.5L303.0 233.5L303.0 232.8L303.2 232.8L303.2 232.2L303.8 231.8L304.5 228.8L304.8 228.8L304.8 228.2L305.2 227.8ZM317.0 227.0L319.0 227.0L319.5 227.5L319.5 228.0L320.0 228.2L320.0 228.8L320.5 229.0L320.5 229.5L321.0 229.8L321.0 230.2L322.2 231.5L322.2 232.0L323.0 232.5L323.0 233.0L323.2 233.0L323.2 227.0L325.0 227.0L325.0 236.0L324.8 236.0L323.2 236.2L322.8 235.8L322.8 235.2L322.2 235.0L322.2 234.5L321.8 234.2L321.8 233.8L321.2 233.5L321.2 233.0L320.0 231.8L320.0 231.2L319.5 231.0L319.2 230.2L319.0 230.2L319.0 231.2L318.8 231.2L318.8 236.0L318.0 236.0L318.0 236.2L317.0 236.0ZM331.2 227.0L338.8 227.0L339.0 227.2L338.8 228.5L336.0 228.5L336.0 233.2L336.0 236.0L335.8 236.2L334.2 236.2L334.2 228.8L334.0 228.5L331.2 228.5ZM51.2 228.5L51.2 228.8L50.2 229.0L50.0 229.8L49.5 230.0L49.5 230.8L49.2 230.8L49.5 233.0L50.0 233.2L50.2 234.0L50.8 234.0L51.2 234.5L53.2 234.5L53.2 234.2L54.2 234.0L54.2 233.5L54.8 233.2L55.0 231.5L55.2 231.5L55.0 230.0L53.5 228.5ZM106.8 228.5L106.8 231.5L109.2 231.5L109.8 231.0L110.2 230.8L110.2 229.2L109.8 228.8L109.2 228.8L109.2 228.5ZM172.8 228.5L171.2 230.0L171.2 230.8L171.0 230.8L171.2 233.0L172.8 234.5L173.5 234.5L173.5 234.8L174.8 234.5L175.5 234.2L176.5 233.2L176.8 230.5L176.5 230.5L176.2 229.5L175.5 228.8L175.0 228.8L175.0 228.5ZM224.0 228.5L222.2 230.2L222.2 232.5L222.5 232.5L222.5 233.2L223.8 234.5L224.8 234.5L224.8 234.8L226.0 234.5L226.8 234.2L227.8 233.2L228.0 230.8L227.8 230.8L227.8 230.0L227.5 230.0L227.5 229.5L227.0 229.0L226.5 229.0L226.0 228.5ZM306.2 229.2L306.2 230.0L305.8 230.5L305.8 231.2L305.5 231.2L305.2 232.2L306.8 232.5L307.0 232.2L307.5 232.5L307.5 231.8L307.2 231.8L307.2 231.0L307.0 231.0L307.0 230.5L306.5 230.0L306.5 229.2Z"/></g><path fill="#D19B23" fill-rule="evenodd" d="M192.0 207.5L193.0 207.8L193.8 208.5L196.5 209.2L196.5 209.5L200.0 209.8L199.8 214.8L199.5 214.8L199.5 215.8L198.8 217.0L198.8 217.8L198.2 218.0L198.0 219.0L195.0 222.0L192.5 223.2L191.8 223.2L191.0 222.5L189.2 221.8L186.8 219.2L185.0 215.8L185.0 214.5L184.8 214.5L184.8 213.2L184.5 213.2L184.5 209.8L188.5 209.2L190.5 208.2L191.2 208.2ZM33.8 214.2L136.5 214.2L136.5 214.5L137.5 214.5L137.5 214.2L140.5 214.2L140.5 214.5L142.0 214.5L142.0 214.2L143.0 214.2L143.0 214.5L146.2 214.5L146.2 214.2L147.5 214.2L147.5 214.5L153.8 214.5L153.8 214.2L162.0 214.5L162.0 214.2L164.0 214.2L164.0 214.5L179.2 214.5L179.8 215.0L179.8 216.2L179.5 216.2L179.5 216.8L179.0 217.0L34.0 216.8L33.2 216.2L33.2 214.8ZM205.2 214.5L350.0 214.5L351.2 215.2L351.2 216.5L350.8 217.0L205.2 217.0L204.8 216.5L204.8 215.0Z"/></svg>
